<?xml version="1.0" standalone="no"?>
<!DOCTYPE svg PUBLIC "-//W3C//DTD SVG 20010904//EN"
 "http://www.w3.org/TR/2001/REC-SVG-20010904/DTD/svg10.dtd">
<svg version="1.0" xmlns="http://www.w3.org/2000/svg"
 width="256.000000pt" height="256.000000pt" viewBox="0 0 256.000000 256.000000"
 preserveAspectRatio="xMidYMid meet">

<g transform="translate(0.000000,256.000000) scale(0.100000,-0.100000)"
fill="#000000" stroke="none">
<path d="M470 2469 c-126 -21 -259 -116 -318 -227 -63 -119 -62 -98 -62 -952
0 -451 4 -800 10 -835 20 -127 120 -269 232 -330 102 -56 87 -55 954 -55 703
0 807 2 855 16 149 44 264 158 315 314 17 51 19 114 22 825 2 540 0 794 -8
850 -29 204 -181 362 -380 394 -81 13 -1540 13 -1620 0z m816 -1035 l339 -396
3 71 c3 70 2 72 -38 120 l-40 48 2 274 3 274 132 3 c131 3 133 2 137 -20 3
-13 4 -257 3 -543 l-2 -520 -105 -3 -105 -2 -235 276 c-129 153 -281 331 -337
396 l-103 119 0 -75 c0 -73 1 -76 40 -121 l40 -47 -2 -271 -3 -272 -135 0
-135 0 -3 530 c-1 292 0 536 3 543 3 8 33 12 103 12 l98 0 340 -396z m791
-1350 c-3 -3 -12 -4 -19 -1 -8 3 -5 6 6 6 11 1 17 -2 13 -5z"/>
</g>
</svg>
